# Blender v2.76 (sub 0) OBJ File: ''
# www.blender.org
mtllib arrow.mtl
o Box
v 0.266351 1.556870 -0.050287
v -0.233631 1.561130 -0.050287
v -0.233631 1.561130 0.049713
v 0.266351 1.556870 0.049713
v 0.257831 0.556906 0.049713
v -0.242151 0.561166 0.049713
v -0.242151 0.561166 -0.050287
v 0.257831 0.556906 -0.050287
vt 0.000000 1.000000
vt 0.000000 0.000000
vt 1.000000 0.000000
vt 1.000000 1.000000
vn 0.008500 1.000000 0.000000
vn -0.008500 -1.000000 0.000000
vn 1.000000 -0.008500 0.000000
vn -1.000000 0.008500 0.000000
vn -0.000000 0.000000 -1.000000
vn 0.000000 -0.000000 1.000000
usemtl Standard
s 1
f 1/1/1 2/2/1 3/3/1 4/4/1
f 5/1/2 6/2/2 7/3/2 8/4/2
f 5/1/3 8/2/3 1/3/3 4/4/3
f 7/1/4 6/2/4 3/3/4 2/4/4
f 8/1/5 7/2/5 2/3/5 1/4/5
f 4/1/6 3/2/6 6/3/6 5/4/6
o Box1
v 0.500000 0.564600 -0.050000
v -0.500000 0.564600 -0.050000
v -0.500000 0.564600 0.050000
v 0.500000 0.564600 0.050000
v 0.000517 0.064600 0.050000
v 0.000517 0.064600 -0.050000
vt 0.000000 1.000000
vt 0.000000 0.000000
vt 1.000000 0.000000
vt 1.000000 1.000000
vn 0.000000 1.000000 0.000000
vn 0.707500 -0.706700 0.000000
vn -0.706700 -0.707500 0.000000
vn 0.000000 -0.000000 1.000000
vn 0.000000 0.000000 -1.000000
usemtl Standard
s 1
f 9/5/7 10/6/7 11/7/7 12/8/7
f 9/5/8 12/6/8 13/7/8 14/8/8
f 11/5/9 10/6/9 14/7/9 13/8/9
f 12/5/10 11/6/10 13/7/10
f 14/5/11 10/7/11 9/8/11
