# Blender v2.76 (sub 0) OBJ File: ''
# www.blender.org
mtllib side_rotor.mtl
o static_rotor2.001
v -0.077258 5.019246 3.726532
v -0.077254 0.359944 1.007420
v -0.077258 4.495998 4.417168
v -0.077255 0.681948 0.151020
v -0.077258 -1.992169 5.926296
v -0.077254 -0.846068 0.655022
v -0.077258 -2.810825 5.642135
v -0.077254 0.068143 0.696625
v -0.077255 5.093688 -3.621393
v -0.077255 1.067945 -0.030575
v -0.077259 5.588931 -2.910593
v -0.077255 0.352785 -0.601376
v -0.077255 -0.883348 -0.600971
v -0.077250 -6.251013 -0.062178
v -0.077255 -0.640348 0.281422
v -0.077255 -6.233737 -0.928572
v -0.077255 0.299543 -1.024570
v -0.077251 -1.871727 -5.962986
v -0.077255 -0.464465 -0.520977
v -0.077251 -1.042389 -6.214191
v -0.047766 1.008187 0.523815
v -0.047766 0.090822 0.276218
v -0.047766 0.808069 0.799023
v -0.047766 0.289662 -0.000576
v -0.047766 -0.235815 -0.167774
v -0.047766 -0.233934 0.172619
v -0.047766 0.289662 -0.000576
v -0.047766 0.087664 -0.275379
v -0.047766 0.808390 -0.796566
v -0.047766 1.008505 -0.520977
v -0.047766 -0.185782 1.121815
v -0.047766 -0.509585 1.016621
v -0.047766 0.090822 0.276218
v -0.047766 0.289662 -0.000576
v -0.047766 -0.235815 -0.167774
v -0.047766 -1.123518 0.171017
v -0.047766 -0.233934 0.172619
v -0.047766 -1.123518 -0.169377
v -0.047766 0.087664 -0.275379
v -0.047766 -0.509066 -1.014568
v -0.047766 -0.235815 -0.167774
v -0.047766 -0.185301 -1.119770
v -0.047766 0.289662 -0.000576
v 0.072282 0.908425 -0.658977
v -0.047766 1.008505 -0.520977
v 0.072282 -0.000377 0.001026
v 0.072282 0.908105 0.661423
v -0.047766 0.090822 0.276218
v -0.047766 0.808069 0.799023
v -0.047766 -0.233934 0.172619
v 0.072282 -0.347705 1.069019
v -0.047766 -0.509585 1.016621
v 0.072281 -0.347185 -1.067364
v -0.047766 0.087664 -0.275379
v -0.047766 -0.185301 -1.119770
v -0.047766 -0.235815 -0.167774
v 0.072282 -1.123518 0.000629
v -0.047766 -1.123518 -0.169377
v -0.047766 0.289662 -0.000576
v 0.072282 0.908105 0.661423
v 0.072282 -0.000377 0.001026
v -0.047766 1.008187 0.523815
v -0.047766 0.087664 -0.275379
v 0.072282 0.908425 -0.658977
v -0.047766 0.808390 -0.796566
v -0.047766 0.090822 0.276218
v 0.072282 -0.347705 1.069019
v -0.047766 -0.185782 1.121815
v -0.047766 -0.235815 -0.167774
v 0.072281 -0.347185 -1.067364
v -0.047766 -0.509066 -1.014568
v -0.047766 -0.233934 0.172619
v 0.072282 -1.123518 0.000629
v -0.047766 -1.123518 0.171017
v -0.077258 4.495998 4.417168
v 0.192466 4.403278 3.779732
v -0.077258 5.019246 3.726532
v 0.192466 4.403278 3.779732
v -0.077255 0.681948 0.151020
v -0.077258 5.019246 3.726532
v 0.192470 0.696588 0.724224
v 0.192470 0.696588 0.724224
v -0.077258 4.495998 4.417168
v -0.077254 0.359944 1.007420
v 0.192466 4.403278 3.779732
v -0.077251 -1.042389 -6.214191
v 0.192469 -0.139460 -0.992970
v 0.192473 -1.342076 -5.644199
v -0.077255 0.299543 -1.024570
v 0.192470 -2.233215 5.356980
v -0.077254 0.068143 0.696625
v -0.077258 -1.992169 5.926296
v 0.192470 -0.472384 0.887417
v -0.077259 5.588931 -2.910593
v 0.192469 4.954046 -3.019388
v -0.077255 5.093688 -3.621393
v 0.192470 -0.472384 0.887417
v -0.077258 -2.810825 5.642135
v -0.077254 -0.846068 0.655022
v 0.192470 -2.233215 5.356980
v 0.192470 0.902346 -0.438175
v -0.077259 5.588931 -2.910593
v -0.077255 1.067945 -0.030575
v 0.192469 4.954046 -3.019388
v -0.077255 0.681948 0.151020
v 0.192470 0.696588 0.724224
v -0.077254 0.359944 1.007420
v 0.192469 4.954046 -3.019388
v -0.077255 0.352785 -0.601376
v -0.077255 5.093688 -3.621393
v 0.192470 0.902346 -0.438175
v -0.077254 0.068143 0.696625
v 0.192470 -0.472384 0.887417
v -0.077254 -0.846068 0.655022
v -0.077255 0.352785 -0.601376
v 0.192470 0.902346 -0.438175
v -0.077255 1.067945 -0.030575
v -0.077255 -0.640348 0.281422
v 0.192470 -0.989069 -0.173771
v -0.077255 -0.883348 -0.600971
v -0.077255 -0.464465 -0.520977
v 0.192469 -0.139460 -0.992970
v -0.077255 0.299543 -1.024570
v 0.192470 -0.989069 -0.173771
v -0.077255 -6.233737 -0.928572
v -0.077255 -0.883348 -0.600971
v 0.192473 -5.784060 -0.467375
v 0.192473 -5.784060 -0.467375
v -0.077255 -0.640348 0.281422
v -0.077250 -6.251013 -0.062178
v 0.192470 -0.989069 -0.173771
v 0.192473 -1.342076 -5.644199
v -0.077255 -0.464465 -0.520977
v -0.077251 -1.871727 -5.962986
v 0.192469 -0.139460 -0.992970
v -0.077255 -6.233737 -0.928572
v 0.192473 -5.784060 -0.467375
v -0.077250 -6.251013 -0.062178
v -0.077251 -1.042389 -6.214191
v 0.192473 -1.342076 -5.644199
v -0.077251 -1.871727 -5.962986
v -0.077258 -2.810825 5.642135
v 0.192470 -2.233215 5.356980
v -0.077258 -1.992169 5.926296
vt 0.720124 0.248354
vt 0.748555 0.001779
vt 0.748555 0.248354
vt 0.720124 0.001779
vt 0.691329 0.002362
vt 0.717381 0.127282
vt 0.717381 0.002362
vt 0.691329 0.127440
vt 0.717381 0.150853
vt 0.665278 0.127596
vt 0.701999 0.002362
vt 0.701999 0.150853
vt 0.735034 0.231822
vt 0.734874 0.021203
vn -1.000000 -0.000000 -0.000000
vn 0.816500 0.338900 0.467400
vn 0.816700 0.338700 0.467300
vn 0.817600 0.337600 0.466400
vn 1.000000 -0.000000 0.000000
vn 0.816200 -0.340100 0.467100
vn 0.816100 -0.340100 0.467200
vn 0.817100 -0.339600 0.465900
vn 0.816200 -0.549300 -0.179000
vn 0.816200 -0.549400 -0.179000
vn 0.817100 -0.548000 -0.179000
vn 0.816300 0.549500 -0.178000
vn 0.816100 0.549800 -0.178200
vn 0.817100 0.548500 -0.177300
vn 0.815800 0.000600 -0.578300
vn 0.815900 0.000600 -0.578200
vn 0.816900 0.001000 -0.576800
vn 0.818500 0.338200 -0.464300
vn 0.818400 0.338300 -0.464500
vn 0.817100 0.339800 -0.465700
vn 0.818500 -0.337100 -0.465200
vn 0.818400 -0.337200 -0.465300
vn 0.817000 -0.337900 -0.467200
vn 0.818500 0.546100 0.178100
vn 0.818500 0.546200 0.178200
vn 0.817400 0.547600 0.179100
vn 0.818600 -0.546500 0.176900
vn 0.818500 -0.546600 0.176900
vn 0.817300 -0.548400 0.177000
vn 0.818500 -0.000600 0.574500
vn 0.818400 -0.000600 0.574700
vn 0.817500 -0.001000 0.576000
vn 0.862100 0.403900 0.306000
vn 0.848700 0.336400 -0.408100
vn 0.848800 0.336300 -0.408000
vn 0.848600 -0.336500 0.408200
vn 0.848700 -0.336400 0.408100
vn 0.848700 0.512000 -0.132400
vn 0.848800 0.512000 -0.132400
vn 0.848800 0.511900 -0.132400
vn 0.848800 0.492000 0.193800
vn 0.862000 0.415900 -0.289800
vn 0.848700 -0.492000 -0.193800
vn 0.848700 0.284200 0.446100
vn 0.848700 0.284200 0.446000
vn 0.848700 0.284100 0.446000
vn 0.624100 -0.731400 -0.275000
vn 0.848600 -0.284200 -0.446100
vn 0.848700 -0.284100 -0.446000
vn 0.623600 0.035500 -0.780900
vn 0.623800 -0.487600 0.610900
vn 0.623900 0.753400 -0.207500
vn 0.623700 0.430200 0.652600
vn 0.848700 0.032300 -0.527900
vn 0.848800 -0.032300 0.527800
vn 0.848800 -0.032300 0.527700
vn 0.848800 -0.511900 0.132400
vn 0.848700 -0.512000 0.132400
vn 0.848700 -0.512100 0.132400
vn 0.862100 -0.506700 -0.010100
vn 0.862000 -0.147000 -0.485200
vn 0.862100 -0.166200 0.478800
usemtl Body.001
s 1
f 1/1/1 2/2/1 3/3/1
f 4/4/1 2/2/1 1/1/1
f 5/1/1 6/2/1 7/3/1
f 8/4/1 6/2/1 5/1/1
f 9/1/1 10/2/1 11/3/1
f 12/4/1 10/2/1 9/1/1
f 13/2/1 14/1/1 15/4/1
f 16/3/1 14/1/1 13/2/1
f 17/2/1 18/1/1 19/4/1
f 20/3/1 18/1/1 17/2/1
f 21/5/1 22/6/1 23/7/1
f 24/8/1 22/6/1 21/5/1
f 24/8/1 25/9/1 26/6/1
f 27/6/1 28/8/1 25/9/1
f 27/6/1 29/5/1 28/8/1
f 30/7/1 29/5/1 27/6/1
f 31/5/1 26/6/1 32/7/1
f 33/8/1 26/6/1 31/5/1
f 33/8/1 34/10/1 26/6/1
f 35/6/1 36/5/1 37/8/1
f 35/6/1 38/7/1 36/5/1
f 39/6/1 40/5/1 41/8/1
f 39/6/1 42/7/1 40/5/1
f 43/6/2 44/11/3 45/7/4
f 43/6/2 46/12/5 44/11/3
f 47/11/6 48/6/7 46/12/5
f 47/11/6 49/7/8 48/6/7
f 50/6/9 51/11/10 52/7/11
f 50/6/9 46/12/5 51/11/10
f 53/11/12 54/6/13 46/12/5
f 53/11/12 55/7/14 54/6/13
f 56/6/15 57/11/16 58/7/17
f 56/6/15 46/12/5 57/11/16
f 59/8/18 60/11/19 61/12/5
f 59/8/18 62/5/20 60/11/19
f 63/8/21 64/11/22 61/12/5
f 63/8/21 65/5/23 64/11/22
f 66/8/24 67/11/25 61/12/5
f 66/8/24 68/5/26 67/11/25
f 69/8/27 70/11/28 61/12/5
f 69/8/27 71/5/29 70/11/28
f 72/8/30 73/11/31 61/12/5
f 72/8/30 74/5/32 73/11/31
f 75/3/33 76/13/33 77/1/33
f 78/13/34 79/4/35 80/1/34
f 81/14/35 79/4/35 78/13/34
f 82/14/36 83/3/37 84/2/36
f 85/13/37 83/3/37 82/14/36
f 86/3/38 87/14/39 88/13/38
f 89/2/40 87/14/39 86/3/38
f 90/13/41 91/4/41 92/1/41
f 93/14/41 91/4/41 90/13/41
f 94/3/42 95/13/42 96/1/42
f 97/14/43 98/3/43 99/2/43
f 100/13/43 98/3/43 97/14/43
f 101/14/44 102/3/45 103/2/44
f 104/13/46 102/3/45 101/14/44
f 105/4/47 106/14/47 107/2/47
f 108/13/48 109/4/49 110/1/48
f 111/14/49 109/4/49 108/13/48
f 112/4/50 113/14/50 114/2/50
f 115/4/51 116/14/51 117/2/51
f 118/4/52 119/14/52 120/2/52
f 121/4/53 122/14/53 123/2/53
f 124/14/54 125/3/54 126/2/54
f 127/13/54 125/3/54 124/14/54
f 128/13/55 129/4/56 130/1/55
f 131/14/56 129/4/56 128/13/55
f 132/13/57 133/4/58 134/1/57
f 135/14/59 133/4/58 132/13/57
f 136/3/60 137/13/60 138/1/60
f 139/3/61 140/13/61 141/1/61
f 142/3/62 143/13/62 144/1/62
