# Blender v2.76 (sub 0) OBJ File: 'Planks of wood.blend'
# www.blender.org
mtllib wood.mtl
o Cube.002
v 50.503845 -1.173733 9.550532
v 50.379745 -1.173733 9.674631
v 50.379745 -1.297831 9.550532
v 50.487267 -1.173733 9.612500
v 50.487267 -1.235701 9.550532
v 50.471161 -1.233078 9.609878
v 50.379745 -1.235701 9.658051
v 50.441715 -1.173733 9.658051
v 50.439087 -1.233078 9.641948
v 50.441715 -1.281252 9.550532
v 50.379745 -1.281252 9.612500
v 50.439087 -1.265148 9.609878
v 50.503845 1.196788 9.550532
v 50.379745 1.320887 9.550532
v 50.379745 1.196788 9.674631
v 50.487267 1.258756 9.550532
v 50.487267 1.196788 9.612500
v 50.471161 1.256134 9.609878
v 50.379745 1.304307 9.612500
v 50.441715 1.304307 9.550532
v 50.439087 1.288203 9.609878
v 50.441715 1.196788 9.658051
v 50.379745 1.258756 9.658051
v 50.439087 1.256134 9.641948
v -50.608536 -1.173733 9.550536
v -50.484436 -1.297831 9.550536
v -50.484436 -1.173733 9.674635
v -50.591957 -1.235701 9.550536
v -50.591957 -1.173733 9.612504
v -50.575851 -1.233078 9.609881
v -50.484436 -1.281252 9.612504
v -50.546406 -1.281252 9.550536
v -50.543777 -1.265148 9.609881
v -50.546406 -1.173733 9.658055
v -50.484436 -1.235701 9.658055
v -50.543777 -1.233078 9.641952
v -50.484436 1.320887 9.550536
v -50.608536 1.196788 9.550536
v -50.484436 1.196788 9.674635
v -50.546406 1.304307 9.550536
v -50.484436 1.304307 9.612504
v -50.543777 1.288203 9.609881
v -50.591957 1.196788 9.612504
v -50.591957 1.258756 9.550536
v -50.575851 1.256134 9.609881
v -50.484436 1.258756 9.658055
v -50.546406 1.196788 9.658055
v -50.543777 1.256134 9.641952
v 50.503845 -1.173733 -9.293328
v 50.379745 -1.297831 -9.293328
v 50.379745 -1.173733 -9.417427
v 50.487267 -1.235701 -9.293328
v 50.487267 -1.173733 -9.355296
v 50.471161 -1.233078 -9.352674
v 50.379745 -1.281252 -9.355296
v 50.441715 -1.281252 -9.293328
v 50.439087 -1.265148 -9.352674
v 50.441715 -1.173733 -9.400847
v 50.379745 -1.235701 -9.400847
v 50.439087 -1.233078 -9.384744
v 50.379745 1.320887 -9.293328
v 50.503845 1.196788 -9.293328
v 50.379745 1.196788 -9.417427
v 50.441715 1.304307 -9.293328
v 50.379745 1.304307 -9.355296
v 50.439087 1.288203 -9.352674
v 50.487267 1.196788 -9.355296
v 50.487267 1.258756 -9.293328
v 50.471161 1.256134 -9.352674
v 50.379745 1.258756 -9.400847
v 50.441715 1.196788 -9.400847
v 50.439087 1.256134 -9.384744
v -50.484436 -1.173733 -9.417423
v -50.484436 -1.297831 -9.293324
v -50.608536 -1.173733 -9.293324
v -50.484436 -1.235701 -9.400844
v -50.546406 -1.173733 -9.400844
v -50.543777 -1.233078 -9.384740
v -50.546406 -1.281252 -9.293324
v -50.484436 -1.281252 -9.355292
v -50.543777 -1.265148 -9.352670
v -50.591957 -1.173733 -9.355292
v -50.591957 -1.235701 -9.293324
v -50.575851 -1.233078 -9.352670
v -50.484436 1.320887 -9.293324
v -50.484436 1.196788 -9.417423
v -50.608536 1.196788 -9.293324
v -50.484436 1.304307 -9.355292
v -50.546406 1.304307 -9.293324
v -50.543777 1.288203 -9.352670
v -50.546406 1.196788 -9.400844
v -50.484436 1.258756 -9.400844
v -50.543777 1.256134 -9.384740
v -50.591957 1.258756 -9.293324
v -50.591957 1.196788 -9.355292
v -50.575851 1.256134 -9.352670
vt 0.416618 0.015392
vt 0.416618 0.981083
vt 0.597032 0.981083
vt 0.597032 0.015392
vt 0.308657 0.016503
vt 0.308657 0.965930
vt 0.286344 0.965930
vt 0.286344 0.016503
vt 0.705572 0.556598
vt 0.705572 0.299732
vt 0.737885 0.299732
vt 0.737885 0.556598
vt 0.737885 0.298888
vt 0.738694 0.298924
vt 0.738729 0.299732
vt 0.737885 0.298041
vt 0.738693 0.298041
vt 0.285761 0.965930
vt 0.285785 0.966489
vt 0.286344 0.966514
vt 0.285176 0.965930
vt 0.285176 0.966489
vt 0.416618 0.014799
vt 0.416050 0.014824
vt 0.416025 0.015392
vt 0.416618 0.014204
vt 0.416050 0.014204
vt 0.739576 0.298924
vt 0.704727 0.299733
vt 0.704763 0.298924
vt 0.705572 0.298888
vt 0.703880 0.299732
vt 0.703880 0.298924
vt 0.415430 0.015392
vt 0.415430 0.014824
vt 0.308657 0.966514
vt 0.309216 0.966489
vt 0.309241 0.965930
vt 0.308657 0.967098
vt 0.309216 0.967098
vt 0.704763 0.298041
vt 0.739576 0.299732
vt 0.416025 0.981083
vt 0.416050 0.981652
vt 0.416618 0.981677
vt 0.415430 0.981083
vt 0.415430 0.981652
vt 0.286344 0.015920
vt 0.285785 0.015944
vt 0.285761 0.016503
vt 0.286344 0.015335
vt 0.285785 0.015335
vt 0.416618 0.982272
vt 0.416050 0.982272
vt 0.705572 0.298041
vt 0.309241 0.016503
vt 0.309216 0.015944
vt 0.308657 0.015920
vt 0.309825 0.016503
vt 0.309825 0.015944
vt 0.738729 0.556598
vt 0.738694 0.557407
vt 0.737885 0.557443
vt 0.739576 0.556598
vt 0.739576 0.557407
vt 0.597626 0.015392
vt 0.597601 0.014824
vt 0.597032 0.014799
vt 0.598221 0.015392
vt 0.598221 0.014824
vt 0.286344 0.967098
vt 0.285785 0.967098
vt 0.738694 0.558290
vt 0.597032 0.014204
vt 0.597601 0.014204
vt 0.705572 0.557443
vt 0.704763 0.557407
vt 0.704727 0.556598
vt 0.705572 0.558290
vt 0.704763 0.558290
vt 0.309825 0.965930
vt 0.309825 0.966489
vt 0.285176 0.016503
vt 0.285176 0.015944
vt 0.597032 0.981677
vt 0.597601 0.981652
vt 0.597626 0.981083
vt 0.597032 0.982272
vt 0.597601 0.982272
vt 0.737885 0.558290
vt 0.598221 0.981083
vt 0.598221 0.981652
vt 0.308657 0.015335
vt 0.309216 0.015335
vt 0.703880 0.556598
vt 0.703880 0.557407
vn 0.129600 -0.983100 0.129600
vn -0.129600 -0.983000 0.129600
vn -0.129600 -0.983000 -0.129600
vn 0.129600 -0.983100 -0.129600
vn -0.129600 0.129600 -0.983000
vn 0.129600 0.129600 -0.983000
vn 0.129600 -0.129600 -0.983000
vn -0.129600 -0.129600 -0.983000
vn 0.129600 0.983100 -0.129600
vn -0.129600 0.983000 -0.129600
vn -0.129600 0.983000 0.129600
vn 0.129600 0.983100 0.129600
vn 0.983000 0.129600 -0.129600
vn 0.983000 0.129600 0.129600
vn 0.983000 -0.129600 0.129600
vn 0.983000 -0.129600 -0.129600
vn -0.983100 0.129600 0.129600
vn -0.983100 0.129600 -0.129600
vn -0.983100 -0.129600 -0.129600
vn -0.983000 -0.129600 0.129600
vn 0.862300 -0.121600 0.491500
vn 0.774400 -0.447400 0.447300
vn 0.862300 -0.491500 0.121600
vn 0.491500 -0.121600 0.862300
vn 0.447300 -0.447300 0.774400
vn 0.129600 -0.129600 0.983000
vn 0.121600 -0.491500 0.862300
vn 0.121600 -0.862300 0.491500
vn 0.447300 -0.774400 0.447300
vn 0.491500 -0.862300 0.121600
vn 0.862300 0.491500 0.121600
vn 0.774400 0.447400 0.447300
vn 0.862300 0.121600 0.491500
vn 0.491500 0.862300 0.121600
vn 0.447300 0.774400 0.447400
vn 0.121600 0.862300 0.491500
vn 0.121600 0.491500 0.862300
vn 0.447300 0.447300 0.774400
vn 0.129600 0.129600 0.983000
vn 0.491500 0.121600 0.862300
vn -0.862300 -0.491500 0.121600
vn -0.774400 -0.447400 0.447300
vn -0.862300 -0.121600 0.491500
vn -0.491500 -0.862300 0.121600
vn -0.447300 -0.774400 0.447300
vn -0.121600 -0.862300 0.491500
vn -0.121600 -0.491500 0.862300
vn -0.447300 -0.447400 0.774400
vn -0.129600 -0.129600 0.983000
vn -0.491500 -0.121600 0.862300
vn -0.491500 0.862300 0.121600
vn -0.447300 0.774400 0.447300
vn -0.121600 0.862300 0.491500
vn -0.862300 0.491500 0.121600
vn -0.774400 0.447400 0.447300
vn -0.862300 0.121600 0.491500
vn -0.491500 0.121600 0.862300
vn -0.447300 0.447400 0.774400
vn -0.129600 0.129600 0.983000
vn -0.121600 0.491500 0.862300
vn 0.862300 -0.491500 -0.121600
vn 0.774400 -0.447400 -0.447300
vn 0.862300 -0.121600 -0.491500
vn 0.491500 -0.862300 -0.121600
vn 0.447300 -0.774400 -0.447400
vn 0.121600 -0.862300 -0.491500
vn 0.121600 -0.491500 -0.862300
vn 0.447300 -0.447300 -0.774400
vn 0.491500 -0.121600 -0.862300
vn 0.491500 0.862300 -0.121600
vn 0.447300 0.774400 -0.447300
vn 0.121600 0.862300 -0.491500
vn 0.862300 0.491500 -0.121600
vn 0.774400 0.447400 -0.447300
vn 0.862300 0.121600 -0.491500
vn 0.491500 0.121600 -0.862300
vn 0.447300 0.447300 -0.774400
vn 0.121600 0.491500 -0.862300
vn -0.121600 -0.491500 -0.862300
vn -0.447300 -0.447400 -0.774400
vn -0.491500 -0.121600 -0.862300
vn -0.121600 -0.862300 -0.491500
vn -0.447300 -0.774400 -0.447300
vn -0.491500 -0.862300 -0.121600
vn -0.862300 -0.491500 -0.121600
vn -0.774400 -0.447400 -0.447300
vn -0.862300 -0.121600 -0.491500
vn -0.121600 0.862300 -0.491500
vn -0.447300 0.774400 -0.447300
vn -0.491500 0.862300 -0.121600
vn -0.121600 0.491500 -0.862300
vn -0.447300 0.447400 -0.774400
vn -0.491500 0.121600 -0.862300
vn -0.862300 0.121600 -0.491500
vn -0.774400 0.447400 -0.447300
vn -0.862300 0.491500 -0.121600
usemtl Material.001
s 1
f 3/1/1 26/2/2 74/3/3 50/4/4
f 86/5/5 63/6/6 51/7/7 73/8/8
f 61/4/9 85/3/10 37/2/11 14/1/12
f 62/9/13 13/10/14 1/11/15 49/12/16
f 38/10/17 87/9/18 75/12/19 25/11/20
f 1/11/15 4/13/21 6/14/22 5/15/23
f 4/13/21 8/16/24 9/17/25 6/14/22
f 2/7/26 7/18/27 9/19/25 8/20/24
f 7/18/27 11/21/28 12/22/29 9/19/25
f 3/1/1 10/23/30 12/24/29 11/25/28
f 10/23/30 5/26/23 6/27/22 12/24/29
f 6/14/22 9/17/25 12/28/29
f 13/10/14 16/29/31 18/30/32 17/31/33
f 16/29/31 20/32/34 21/33/35 18/30/32
f 14/1/12 19/25/36 21/24/35 20/23/34
f 19/25/36 23/34/37 24/35/38 21/24/35
f 15/6/39 22/36/40 24/37/38 23/38/37
f 22/36/40 17/39/33 18/40/32 24/37/38
f 18/30/32 21/33/35 24/41/38
f 25/11/20 28/15/41 30/14/42 29/13/43
f 28/15/41 32/42/44 33/28/45 30/14/42
f 26/2/2 31/43/46 33/44/45 32/45/44
f 31/43/46 35/46/47 36/47/48 33/44/45
f 27/8/49 34/48/50 36/49/48 35/50/47
f 34/48/50 29/51/43 30/52/42 36/49/48
f 30/14/42 33/28/45 36/17/48
f 37/2/11 40/45/51 42/44/52 41/43/53
f 40/45/51 44/53/54 45/54/55 42/44/52
f 38/10/17 43/31/56 45/30/55 44/29/54
f 43/31/56 47/55/57 48/41/58 45/30/55
f 39/5/59 46/56/60 48/57/58 47/58/57
f 46/56/60 41/59/53 42/60/52 48/57/58
f 42/44/52 45/54/55 48/47/58
f 49/12/16 52/61/61 54/62/62 53/63/63
f 52/61/61 56/64/64 57/65/65 54/62/62
f 50/4/4 55/66/66 57/67/65 56/68/64
f 55/66/66 59/69/67 60/70/68 57/67/65
f 51/7/7 58/20/69 60/19/68 59/18/67
f 58/20/69 53/71/63 54/72/62 60/19/68
f 54/62/62 57/65/65 60/73/68
f 61/4/9 64/68/70 66/67/71 65/66/72
f 64/68/70 68/74/73 69/75/74 66/67/71
f 62/9/13 67/76/75 69/77/74 68/78/73
f 67/76/75 71/79/76 72/80/77 69/77/74
f 63/6/6 70/38/78 72/37/77 71/36/76
f 70/38/78 65/81/72 66/82/71 72/37/77
f 66/67/71 69/75/74 72/70/77
f 73/8/8 76/50/79 78/49/80 77/48/81
f 76/50/79 80/83/82 81/84/83 78/49/80
f 74/3/3 79/85/84 81/86/83 80/87/82
f 79/85/84 83/88/85 84/89/86 81/86/83
f 75/12/19 82/63/87 84/62/86 83/61/85
f 82/63/87 77/90/81 78/73/80 84/62/86
f 78/49/80 81/84/83 84/52/86
f 85/3/10 88/87/88 90/86/89 89/85/90
f 88/87/88 92/91/91 93/92/92 90/86/89
f 86/5/5 91/58/93 93/57/92 92/56/91
f 91/58/93 95/93/94 96/94/95 93/57/92
f 87/9/18 94/78/96 96/77/95 95/76/94
f 94/78/96 89/95/90 90/96/89 96/77/95
f 90/86/89 93/92/92 96/89/95
f 1/11/15 13/10/14 17/31/33 4/13/21
f 4/13/21 17/31/33 22/55/40 8/16/24
f 8/20/24 22/36/40 15/6/39 2/7/26
f 14/1/12 37/2/11 41/43/53 19/25/36
f 19/25/36 41/43/53 46/46/60 23/34/37
f 23/38/37 46/56/60 39/5/59 15/6/39
f 38/10/17 25/11/20 29/13/43 43/31/56
f 43/31/56 29/13/43 34/16/50 47/55/57
f 47/58/57 34/48/50 27/8/49 39/5/59
f 26/2/2 3/1/1 11/25/28 31/43/46
f 31/43/46 11/25/28 7/34/27 35/46/47
f 35/50/47 7/18/27 2/7/26 27/8/49
f 37/2/11 85/3/10 89/85/90 40/45/51
f 40/45/51 89/85/90 94/88/96 44/53/54
f 44/29/54 94/78/96 87/9/18 38/10/17
f 86/5/5 73/8/8 77/48/81 91/58/93
f 91/58/93 77/48/81 82/51/87 95/93/94
f 95/76/94 82/63/87 75/12/19 87/9/18
f 74/3/3 26/2/2 32/45/44 79/85/84
f 79/85/84 32/45/44 28/53/41 83/88/85
f 83/61/85 28/15/41 25/11/20 75/12/19
f 85/3/10 61/4/9 65/66/72 88/87/88
f 88/87/88 65/66/72 70/69/78 92/91/91
f 92/56/91 70/38/78 63/6/6 86/5/5
f 62/9/13 49/12/16 53/63/63 67/76/75
f 67/76/75 53/63/63 58/90/69 71/79/76
f 71/36/76 58/20/69 51/7/7 63/6/6
f 50/4/4 74/3/3 80/87/82 55/66/66
f 55/66/66 80/87/82 76/91/79 59/69/67
f 59/18/67 76/50/79 73/8/8 51/7/7
f 61/4/9 14/1/12 20/23/34 64/68/70
f 64/68/70 20/23/34 16/26/31 68/74/73
f 68/78/73 16/29/31 13/10/14 62/9/13
f 3/1/1 50/4/4 56/68/64 10/23/30
f 10/23/30 56/68/64 52/74/61 5/26/23
f 5/15/23 52/61/61 49/12/16 1/11/15
f 15/6/39 39/5/59 27/8/49 2/7/26
